<svg width="32" height="20" viewBox="0 0 32 20" fill="none" xmlns="http://www.w3.org/2000/svg">
  <path d="M7.09 6.204C11.882 1.54 19.562 1.54 24.354 6.204L24.883 6.719C25.093 6.923 25.093 7.256 24.883 7.46L22.847 9.441C22.742 9.543 22.573 9.543 22.468 9.441L21.749 8.742C18.405 5.482 13.039 5.482 9.694 8.742L8.926 9.49C8.821 9.592 8.651 9.592 8.547 9.49L6.51 7.51C6.301 7.306 6.301 6.972 6.51 6.768L7.09 6.204ZM28.034 9.783L29.87 11.569C30.08 11.773 30.08 12.107 29.87 12.311L21.881 20.085C21.671 20.289 21.335 20.289 21.126 20.085L15.637 14.726C15.585 14.675 15.501 14.675 15.449 14.726L9.96 20.085C9.751 20.289 9.414 20.289 9.205 20.085L1.216 12.311C1.006 12.107 1.006 11.773 1.216 11.569L3.052 9.783C3.262 9.579 3.598 9.579 3.808 9.783L9.297 15.142C9.349 15.193 9.433 15.193 9.485 15.142L14.974 9.783C15.183 9.579 15.52 9.579 15.729 9.783L21.218 15.142C21.27 15.193 21.354 15.193 21.406 15.142L26.895 9.783C27.104 9.579 27.441 9.579 27.65 9.783H28.034Z" fill="#3B99FC"/>
</svg> 