<svg xmlns="http://www.w3.org/2000/svg" width="35" height="33" viewBox="0 0 35 33" fill="none">
  <path d="M32.9582 1L19.8241 10.8296L22.2683 5.17053L32.9582 1Z" fill="#E2761B" stroke="#E2761B" stroke-width="0.3" stroke-linecap="round" stroke-linejoin="round"/>
  <path d="M2.03412 1L15.0539 10.9367L12.7317 5.17053L2.03412 1Z" fill="#E4761B" stroke="#E4761B" stroke-width="0.3" stroke-linecap="round" stroke-linejoin="round"/>
  <path d="M28.22 23.518L24.7063 28.8568L32.1099 30.8858L34.247 23.6251L28.22 23.518Z" fill="#E4761B" stroke="#E4761B" stroke-width="0.3" stroke-linecap="round" stroke-linejoin="round"/>
  <path d="M0.766602 23.6251L2.89134 30.8858L10.295 28.8568L6.78129 23.518L0.766602 23.6251Z" fill="#E4761B" stroke="#E4761B" stroke-width="0.3" stroke-linecap="round" stroke-linejoin="round"/>
  <path d="M9.9021 14.6185L7.81519 17.7194L15.1623 18.0622L14.9124 10.1514L9.9021 14.6185Z" fill="#E4761B" stroke="#E4761B" stroke-width="0.3" stroke-linecap="round" stroke-linejoin="round"/>
  <path d="M25.0844 14.6185L20.0027 10.0443L19.8242 18.0622L27.1713 17.7194L25.0844 14.6185Z" fill="#E4761B" stroke="#E4761B" stroke-width="0.3" stroke-linecap="round" stroke-linejoin="round"/>
  <path d="M10.2949 28.8568L14.7339 26.7056L10.8376 23.6788L10.2949 28.8568Z" fill="#E4761B" stroke="#E4761B" stroke-width="0.3" stroke-linecap="round" stroke-linejoin="round"/>
  <path d="M20.2527 26.7056L24.7061 28.8568L24.1491 23.6788L20.2527 26.7056Z" fill="#E4761B" stroke="#E4761B" stroke-width="0.3" stroke-linecap="round" stroke-linejoin="round"/>
  <path d="M24.7061 28.8568L20.2527 26.7056L20.6169 29.5323L20.5741 30.7786L24.7061 28.8568Z" fill="#D7C1B3" stroke="#D7C1B3" stroke-width="0.3" stroke-linecap="round" stroke-linejoin="round"/>
  <path d="M10.2949 28.8568L14.4269 30.7786L14.3985 29.5323L14.7339 26.7056L10.2949 28.8568Z" fill="#D7C1B3" stroke="#D7C1B3" stroke-width="0.3" stroke-linecap="round" stroke-linejoin="round"/>
  <path d="M14.4982 21.8104L10.7516 20.7428L13.3528 19.5679L14.4982 21.8104Z" fill="#233447" stroke="#233447" stroke-width="0.3" stroke-linecap="round" stroke-linejoin="round"/>
  <path d="M20.4883 21.8104L21.6337 19.5679L24.2491 20.7428L20.4883 21.8104Z" fill="#233447" stroke="#233447" stroke-width="0.3" stroke-linecap="round" stroke-linejoin="round"/>
  <path d="M10.295 28.8568L10.8663 23.518L6.78131 23.6251L10.295 28.8568Z" fill="#CD6116" stroke="#CD6116" stroke-width="0.3" stroke-linecap="round" stroke-linejoin="round"/>
  <path d="M24.1338 23.518L24.7051 28.8568L28.2187 23.6251L24.1338 23.518Z" fill="#CD6116" stroke="#CD6116" stroke-width="0.3" stroke-linecap="round" stroke-linejoin="round"/>
  <path d="M27.1713 17.7194L19.8242 18.0622L20.5027 21.8104L21.6482 19.5679L24.2635 20.7428L27.1713 17.7194Z" fill="#CD6116" stroke="#CD6116" stroke-width="0.3" stroke-linecap="round" stroke-linejoin="round"/>
  <path d="M10.7516 20.7428L13.3669 19.5679L14.4981 21.8104L15.1909 18.0622L7.81519 17.7194L10.7516 20.7428Z" fill="#CD6116" stroke="#CD6116" stroke-width="0.3" stroke-linecap="round" stroke-linejoin="round"/>
  <path d="M7.81519 17.7194L10.8376 23.6788L10.7516 20.7428L7.81519 17.7194Z" fill="#E4751F" stroke="#E4751F" stroke-width="0.3" stroke-linecap="round" stroke-linejoin="round"/>
  <path d="M24.2634 20.7428L24.1489 23.6788L27.1713 17.7194L24.2634 20.7428Z" fill="#E4751F" stroke="#E4751F" stroke-width="0.3" stroke-linecap="round" stroke-linejoin="round"/>
  <path d="M15.1909 18.0623L14.498 21.8105L15.3621 26.2776L15.569 20.3465L15.1909 18.0623Z" fill="#E4751F" stroke="#E4751F" stroke-width="0.3" stroke-linecap="round" stroke-linejoin="round"/>
  <path d="M19.8242 18.0623L19.4604 20.3324L19.6244 26.2776L20.5028 21.8105L19.8242 18.0623Z" fill="#E4751F" stroke="#E4751F" stroke-width="0.3" stroke-linecap="round" stroke-linejoin="round"/>
  <path d="M20.5028 21.8104L19.6244 26.2776L20.2526 26.7056L24.149 23.6788L24.2635 20.7428L20.5028 21.8104Z" fill="#F6851B" stroke="#F6851B" stroke-width="0.3" stroke-linecap="round" stroke-linejoin="round"/>
  <path d="M10.7516 20.7428L10.8376 23.6788L14.734 26.7056L15.3622 26.2776L14.4981 21.8104L10.7516 20.7428Z" fill="#F6851B" stroke="#F6851B" stroke-width="0.3" stroke-linecap="round" stroke-linejoin="round"/>
  <path d="M20.5742 30.7786L20.617 29.5323L20.2812 29.2431H14.7053L14.3985 29.5323L14.4269 30.7786L10.2949 28.8568L11.7018 30.0101L14.6627 32.0607H20.3242L23.2993 30.0101L24.7062 28.8568L20.5742 30.7786Z" fill="#C0AD9E" stroke="#C0AD9E" stroke-width="0.3" stroke-linecap="round" stroke-linejoin="round"/>
  <path d="M20.2526 26.7057L19.6244 26.2776H15.3622L14.734 26.7057L14.3986 29.5323L14.7054 29.2431H20.2813L20.6171 29.5323L20.2526 26.7057Z" fill="#161616" stroke="#161616" stroke-width="0.3" stroke-linecap="round" stroke-linejoin="round"/>
  <path d="M33.6296 11.5377L34.7608 6.16179L32.9581 1L20.2526 10.5404L25.0843 14.6185L31.9412 16.6123L33.4481 14.8452L32.8055 14.3742L33.858 13.4322L33.0651 12.8018L34.1176 12.0169L33.6296 11.5377Z" fill="#763D16" stroke="#763D16" stroke-width="0.3" stroke-linecap="round" stroke-linejoin="round"/>
  <path d="M0.239258 6.16179L1.37043 11.5377L0.8681 12.0169L1.9206 12.8018L1.1419 13.4322L2.19441 14.3742L1.55182 14.8452L3.04441 16.6123L9.9013 14.6185L14.733 10.5404L2.02751 1L0.239258 6.16179Z" fill="#763D16" stroke="#763D16" stroke-width="0.3" stroke-linecap="round" stroke-linejoin="round"/>
  <path d="M31.9413 16.6123L25.0844 14.6185L27.1713 17.7194L24.149 23.6788L28.2197 23.6251H34.2471L31.9413 16.6123Z" fill="#F6851B" stroke="#F6851B" stroke-width="0.3" stroke-linecap="round" stroke-linejoin="round"/>
  <path d="M9.9013 14.6185L3.04446 16.6123L0.766602 23.6251H6.78129L10.8376 23.6788L7.81529 17.7194L9.9013 14.6185Z" fill="#F6851B" stroke="#F6851B" stroke-width="0.3" stroke-linecap="round" stroke-linejoin="round"/>
  <path d="M19.8242 18.0622L20.2526 10.5404L22.2824 5.17053H12.7316L14.7329 10.5404L15.1909 18.0622L15.348 20.3606L15.3622 26.2776H19.6244L19.6528 20.3606L19.8242 18.0622Z" fill="#F6851B" stroke="#F6851B" stroke-width="0.3" stroke-linecap="round" stroke-linejoin="round"/>
</svg> 